<svg width="22" height="20" viewBox="0 0 22 20" fill="none" xmlns="http://www.w3.org/2000/svg">
<path d="M7.9999 1.5V18.5M1.4639 7.344C1.2159 7.344 0.988896 7.142 0.999896 6.879C1.0669 5.337 1.2549 4.333 1.7799 3.539C2.07936 3.08653 2.4549 2.68933 2.8899 2.365C4.0549 1.5 5.6999 1.5 8.9919 1.5H13.0059C16.2979 1.5 17.9429 1.5 19.1099 2.365C19.5409 2.685 19.9169 3.082 20.2189 3.539C20.7439 4.333 20.9319 5.337 20.9989 6.879C21.0099 7.142 20.7829 7.344 20.5339 7.344C19.1479 7.344 18.0239 8.533 18.0239 10C18.0239 11.467 19.1479 12.656 20.5339 12.656C20.7829 12.656 21.0099 12.858 20.9989 13.122C20.9319 14.663 20.7439 15.667 20.2189 16.462C19.9193 16.9141 19.5438 17.311 19.1089 17.635C17.9429 18.5 16.2979 18.5 13.0059 18.5H8.9929C5.7009 18.5 4.0559 18.5 2.8889 17.635C2.45426 17.3106 2.07906 16.9134 1.7799 16.461C1.2549 15.667 1.0669 14.663 0.999896 13.121C0.988896 12.858 1.2159 12.656 1.4639 12.656C2.8499 12.656 3.9739 11.467 3.9739 10C3.9739 8.533 2.8499 7.344 1.4639 7.344Z" stroke="white" stroke-width="1.5" stroke-linecap="round" stroke-linejoin="round"/>
</svg>
